<mxfile host="Electron" agent="Mozilla/5.0 (Windows NT 10.0; Win64; x64) AppleWebKit/537.36 (KHTML, like Gecko) draw.io/24.7.5 Chrome/126.0.6478.183 Electron/31.3.0 Safari/537.36" version="24.7.5">
  <diagram name="Page-1" id="HGHS9Yr0lSxeL46rvWCc">
    <mxGraphModel dx="1195" dy="697" grid="1" gridSize="10" guides="1" tooltips="1" connect="1" arrows="1" fold="1" page="1" pageScale="1" pageWidth="850" pageHeight="1100" math="0" shadow="0">
      <root>
        <mxCell id="0" />
        <mxCell id="1" parent="0" />
        <mxCell id="8mcl8XqbMrUgA8_tY1wD-2" value="" style="whiteSpace=wrap;html=1;aspect=fixed;" vertex="1" parent="1">
          <mxGeometry x="290" y="100" width="80" height="80" as="geometry" />
        </mxCell>
        <mxCell id="8mcl8XqbMrUgA8_tY1wD-3" value="" style="whiteSpace=wrap;html=1;aspect=fixed;" vertex="1" parent="1">
          <mxGeometry x="290" y="250" width="80" height="80" as="geometry" />
        </mxCell>
        <mxCell id="8mcl8XqbMrUgA8_tY1wD-4" value="" style="whiteSpace=wrap;html=1;aspect=fixed;" vertex="1" parent="1">
          <mxGeometry x="300" y="260" width="80" height="80" as="geometry" />
        </mxCell>
        <mxCell id="8mcl8XqbMrUgA8_tY1wD-11" value="Client Browser&lt;div&gt;&lt;br&gt;&lt;/div&gt;" style="rounded=0;whiteSpace=wrap;html=1;" vertex="1" parent="1">
          <mxGeometry x="280" y="20" width="120" height="40" as="geometry" />
        </mxCell>
        <mxCell id="8mcl8XqbMrUgA8_tY1wD-64" style="edgeStyle=orthogonalEdgeStyle;rounded=0;orthogonalLoop=1;jettySize=auto;html=1;entryX=0;entryY=0.75;entryDx=0;entryDy=0;" edge="1" parent="1" source="8mcl8XqbMrUgA8_tY1wD-13" target="8mcl8XqbMrUgA8_tY1wD-11">
          <mxGeometry relative="1" as="geometry" />
        </mxCell>
        <mxCell id="8mcl8XqbMrUgA8_tY1wD-13" value="Actor" style="shape=umlActor;verticalLabelPosition=bottom;verticalAlign=top;html=1;outlineConnect=0;" vertex="1" parent="1">
          <mxGeometry x="160" y="20" width="30" height="60" as="geometry" />
        </mxCell>
        <mxCell id="8mcl8XqbMrUgA8_tY1wD-15" value="HTTPS Request&lt;br&gt;Bearer: JWT" style="text;html=1;align=center;verticalAlign=middle;whiteSpace=wrap;rounded=0;" vertex="1" parent="1">
          <mxGeometry x="340" y="210" width="120" height="30" as="geometry" />
        </mxCell>
        <mxCell id="8mcl8XqbMrUgA8_tY1wD-20" value="" style="shape=link;html=1;rounded=0;" edge="1" parent="1">
          <mxGeometry width="100" relative="1" as="geometry">
            <mxPoint x="190" y="410" as="sourcePoint" />
            <mxPoint x="510" y="410" as="targetPoint" />
          </mxGeometry>
        </mxCell>
        <mxCell id="8mcl8XqbMrUgA8_tY1wD-23" value="Azure SQL DB" style="rounded=0;whiteSpace=wrap;html=1;" vertex="1" parent="1">
          <mxGeometry x="110" y="490" width="120" height="60" as="geometry" />
        </mxCell>
        <mxCell id="8mcl8XqbMrUgA8_tY1wD-24" value="Azure File Share&lt;div&gt;(Posters etc.)&lt;/div&gt;" style="rounded=0;whiteSpace=wrap;html=1;" vertex="1" parent="1">
          <mxGeometry x="290" y="490" width="120" height="60" as="geometry" />
        </mxCell>
        <mxCell id="8mcl8XqbMrUgA8_tY1wD-25" value="Azure Key Vault&lt;div&gt;(Secrets/Config)&lt;/div&gt;" style="rounded=0;whiteSpace=wrap;html=1;" vertex="1" parent="1">
          <mxGeometry x="470" y="490" width="120" height="60" as="geometry" />
        </mxCell>
        <mxCell id="8mcl8XqbMrUgA8_tY1wD-28" value="" style="endArrow=classic;startArrow=classic;html=1;rounded=0;exitX=0.5;exitY=0;exitDx=0;exitDy=0;" edge="1" parent="1" source="8mcl8XqbMrUgA8_tY1wD-23">
          <mxGeometry width="50" height="50" relative="1" as="geometry">
            <mxPoint x="220" y="440" as="sourcePoint" />
            <mxPoint x="260" y="410" as="targetPoint" />
          </mxGeometry>
        </mxCell>
        <mxCell id="8mcl8XqbMrUgA8_tY1wD-29" value="" style="endArrow=classic;startArrow=classic;html=1;rounded=0;exitX=0.583;exitY=-0.05;exitDx=0;exitDy=0;exitPerimeter=0;" edge="1" parent="1">
          <mxGeometry width="50" height="50" relative="1" as="geometry">
            <mxPoint x="354.98" y="490" as="sourcePoint" />
            <mxPoint x="355" y="410" as="targetPoint" />
          </mxGeometry>
        </mxCell>
        <mxCell id="8mcl8XqbMrUgA8_tY1wD-34" value="HTTPS" style="text;html=1;align=center;verticalAlign=middle;whiteSpace=wrap;rounded=0;" vertex="1" parent="1">
          <mxGeometry x="200" y="90" width="60" height="30" as="geometry" />
        </mxCell>
        <mxCell id="8mcl8XqbMrUgA8_tY1wD-40" value="" style="whiteSpace=wrap;html=1;aspect=fixed;" vertex="1" parent="1">
          <mxGeometry x="300" y="110" width="80" height="80" as="geometry" />
        </mxCell>
        <mxCell id="8mcl8XqbMrUgA8_tY1wD-53" style="edgeStyle=orthogonalEdgeStyle;rounded=0;orthogonalLoop=1;jettySize=auto;html=1;entryX=0.75;entryY=0;entryDx=0;entryDy=0;" edge="1" parent="1" source="8mcl8XqbMrUgA8_tY1wD-41" target="8mcl8XqbMrUgA8_tY1wD-3">
          <mxGeometry relative="1" as="geometry" />
        </mxCell>
        <mxCell id="8mcl8XqbMrUgA8_tY1wD-68" style="edgeStyle=orthogonalEdgeStyle;rounded=0;orthogonalLoop=1;jettySize=auto;html=1;entryX=1;entryY=0.25;entryDx=0;entryDy=0;" edge="1" parent="1" source="8mcl8XqbMrUgA8_tY1wD-41" target="8mcl8XqbMrUgA8_tY1wD-11">
          <mxGeometry relative="1" as="geometry" />
        </mxCell>
        <mxCell id="8mcl8XqbMrUgA8_tY1wD-41" value="WebUI&lt;div&gt;(App Service)&lt;/div&gt;" style="whiteSpace=wrap;html=1;aspect=fixed;" vertex="1" parent="1">
          <mxGeometry x="310" y="120" width="80" height="80" as="geometry" />
        </mxCell>
        <mxCell id="8mcl8XqbMrUgA8_tY1wD-46" value="Interacts with" style="text;html=1;align=center;verticalAlign=middle;whiteSpace=wrap;rounded=0;" vertex="1" parent="1">
          <mxGeometry x="210" y="10" width="60" height="30" as="geometry" />
        </mxCell>
        <mxCell id="8mcl8XqbMrUgA8_tY1wD-48" style="edgeStyle=orthogonalEdgeStyle;rounded=0;orthogonalLoop=1;jettySize=auto;html=1;entryX=-0.01;entryY=0.579;entryDx=0;entryDy=0;entryPerimeter=0;" edge="1" parent="1" source="8mcl8XqbMrUgA8_tY1wD-11" target="8mcl8XqbMrUgA8_tY1wD-2">
          <mxGeometry relative="1" as="geometry" />
        </mxCell>
        <mxCell id="8mcl8XqbMrUgA8_tY1wD-49" value="Potential to horizontally scale" style="text;html=1;align=center;verticalAlign=middle;whiteSpace=wrap;rounded=0;" vertex="1" parent="1">
          <mxGeometry x="400" y="135" width="80" height="50" as="geometry" />
        </mxCell>
        <mxCell id="8mcl8XqbMrUgA8_tY1wD-55" style="edgeStyle=orthogonalEdgeStyle;rounded=0;orthogonalLoop=1;jettySize=auto;html=1;exitX=0.25;exitY=1;exitDx=0;exitDy=0;" edge="1" parent="1" source="8mcl8XqbMrUgA8_tY1wD-50">
          <mxGeometry relative="1" as="geometry">
            <mxPoint x="330" y="410" as="targetPoint" />
          </mxGeometry>
        </mxCell>
        <mxCell id="8mcl8XqbMrUgA8_tY1wD-50" value="WebAPI&lt;div&gt;(App Service)&lt;/div&gt;" style="whiteSpace=wrap;html=1;aspect=fixed;" vertex="1" parent="1">
          <mxGeometry x="310" y="270" width="80" height="80" as="geometry" />
        </mxCell>
        <mxCell id="8mcl8XqbMrUgA8_tY1wD-54" value="Potential to horizontally scale" style="text;html=1;align=center;verticalAlign=middle;whiteSpace=wrap;rounded=0;" vertex="1" parent="1">
          <mxGeometry x="400" y="275" width="80" height="50" as="geometry" />
        </mxCell>
        <mxCell id="8mcl8XqbMrUgA8_tY1wD-56" value="R/W Data" style="text;html=1;align=center;verticalAlign=middle;whiteSpace=wrap;rounded=0;" vertex="1" parent="1">
          <mxGeometry x="130" y="430" width="60" height="30" as="geometry" />
        </mxCell>
        <mxCell id="8mcl8XqbMrUgA8_tY1wD-57" value="R/W Files" style="text;html=1;align=center;verticalAlign=middle;whiteSpace=wrap;rounded=0;" vertex="1" parent="1">
          <mxGeometry x="280" y="430" width="60" height="30" as="geometry" />
        </mxCell>
        <mxCell id="8mcl8XqbMrUgA8_tY1wD-60" value="" style="endArrow=classic;html=1;rounded=0;exitX=0.563;exitY=-0.019;exitDx=0;exitDy=0;exitPerimeter=0;" edge="1" parent="1" source="8mcl8XqbMrUgA8_tY1wD-25">
          <mxGeometry width="50" height="50" relative="1" as="geometry">
            <mxPoint x="450" y="460" as="sourcePoint" />
            <mxPoint x="450" y="410" as="targetPoint" />
          </mxGeometry>
        </mxCell>
        <mxCell id="8mcl8XqbMrUgA8_tY1wD-61" value="Read secrets/config" style="text;html=1;align=center;verticalAlign=middle;whiteSpace=wrap;rounded=0;" vertex="1" parent="1">
          <mxGeometry x="520" y="420" width="60" height="30" as="geometry" />
        </mxCell>
        <mxCell id="8mcl8XqbMrUgA8_tY1wD-65" value="" style="endArrow=classic;html=1;rounded=0;entryX=0.25;entryY=1;entryDx=0;entryDy=0;" edge="1" parent="1" target="8mcl8XqbMrUgA8_tY1wD-41">
          <mxGeometry width="50" height="50" relative="1" as="geometry">
            <mxPoint x="330" y="248" as="sourcePoint" />
            <mxPoint x="300" y="210" as="targetPoint" />
          </mxGeometry>
        </mxCell>
        <mxCell id="8mcl8XqbMrUgA8_tY1wD-66" value="HTTPS Response&lt;div&gt;Data&lt;/div&gt;" style="text;html=1;align=center;verticalAlign=middle;whiteSpace=wrap;rounded=0;" vertex="1" parent="1">
          <mxGeometry x="200" y="210" width="120" height="30" as="geometry" />
        </mxCell>
        <mxCell id="8mcl8XqbMrUgA8_tY1wD-69" value="HTTPS Response&lt;div&gt;Content&lt;/div&gt;" style="text;html=1;align=center;verticalAlign=middle;whiteSpace=wrap;rounded=0;" vertex="1" parent="1">
          <mxGeometry x="425" y="40" width="120" height="30" as="geometry" />
        </mxCell>
        <mxCell id="8mcl8XqbMrUgA8_tY1wD-71" value="Calls" style="text;html=1;align=center;verticalAlign=middle;whiteSpace=wrap;rounded=0;" vertex="1" parent="1">
          <mxGeometry x="280" y="360" width="60" height="30" as="geometry" />
        </mxCell>
        <mxCell id="8mcl8XqbMrUgA8_tY1wD-74" value="" style="endArrow=classic;html=1;rounded=0;entryX=0.75;entryY=1;entryDx=0;entryDy=0;" edge="1" parent="1" target="8mcl8XqbMrUgA8_tY1wD-50">
          <mxGeometry width="50" height="50" relative="1" as="geometry">
            <mxPoint x="370" y="410" as="sourcePoint" />
            <mxPoint x="440" y="330" as="targetPoint" />
          </mxGeometry>
        </mxCell>
        <mxCell id="8mcl8XqbMrUgA8_tY1wD-75" value="Service response" style="text;html=1;align=center;verticalAlign=middle;whiteSpace=wrap;rounded=0;" vertex="1" parent="1">
          <mxGeometry x="370" y="360" width="60" height="30" as="geometry" />
        </mxCell>
      </root>
    </mxGraphModel>
  </diagram>
</mxfile>
